<svg width="1200" height="900" viewBox="0 0 1200 900" fill="none" xmlns="http://www.w3.org/2000/svg">
  <rect width="1200" height="900" rx="36" fill="#0A0F1C"/>
  <rect x="52" y="52" width="1096" height="796" rx="28" fill="#111827" stroke="#1F2937" stroke-width="2"/>
  <rect x="52" y="52" width="1096" height="68" rx="28" fill="#0F172A"/>
  <circle cx="102" cy="86" r="9" fill="#EF4444"/>
  <circle cx="132" cy="86" r="9" fill="#F59E0B"/>
  <circle cx="162" cy="86" r="9" fill="#10B981"/>
  <rect x="210" y="72" width="188" height="28" rx="14" fill="#1E293B"/>
  <rect x="86" y="156" width="226" height="628" rx="20" fill="#0F172A"/>
  <rect x="112" y="188" width="126" height="16" rx="8" fill="#CBD5E1" fill-opacity="0.92"/>
  <rect x="112" y="226" width="152" height="12" rx="6" fill="#334155"/>
  <rect x="112" y="266" width="174" height="12" rx="6" fill="#334155"/>
  <rect x="112" y="306" width="148" height="12" rx="6" fill="#334155"/>
  <rect x="112" y="346" width="166" height="12" rx="6" fill="#334155"/>
  <rect x="112" y="386" width="154" height="12" rx="6" fill="#334155"/>
  <rect x="112" y="426" width="182" height="12" rx="6" fill="#334155"/>
  <rect x="348" y="156" width="764" height="628" rx="20" fill="#0B1220"/>
  <rect x="384" y="192" width="692" height="220" rx="22" fill="#111827" stroke="#1E293B"/>
  <path d="M420 336C483 286 548 300 606 270C668 238 738 238 796 274C853 309 916 322 982 246L1040 210V376H420V336Z" fill="#2563EB" fill-opacity="0.3"/>
  <path d="M420 344C483 294 548 308 606 278C668 246 738 246 796 282C853 317 916 330 982 254L1040 218" stroke="#60A5FA" stroke-width="8" stroke-linecap="round"/>
  <rect x="384" y="444" width="326" height="140" rx="20" fill="#111827" stroke="#1E293B"/>
  <rect x="420" y="480" width="118" height="18" rx="9" fill="#E5E7EB"/>
  <rect x="420" y="516" width="248" height="12" rx="6" fill="#334155"/>
  <rect x="420" y="548" width="224" height="12" rx="6" fill="#334155"/>
  <rect x="746" y="444" width="330" height="140" rx="20" fill="#111827" stroke="#1E293B"/>
  <rect x="782" y="480" width="124" height="18" rx="9" fill="#E5E7EB"/>
  <rect x="782" y="520" width="92" height="36" rx="18" fill="#1D4ED8"/>
  <rect x="348" y="616" width="764" height="168" rx="20" fill="#111827" stroke="#1E293B"/>
  <rect x="384" y="652" width="176" height="16" rx="8" fill="#E5E7EB"/>
  <rect x="384" y="690" width="652" height="12" rx="6" fill="#334155"/>
  <rect x="384" y="722" width="576" height="12" rx="6" fill="#334155"/>
</svg>
