<svg width="1200" height="900" viewBox="0 0 1200 900" fill="none" xmlns="http://www.w3.org/2000/svg">
  <rect width="1200" height="900" rx="36" fill="#0F172A"/>
  <rect x="64" y="64" width="1072" height="772" rx="28" fill="#111827" stroke="#1F2937" stroke-width="2"/>
  <rect x="64" y="64" width="1072" height="72" rx="28" fill="#0B1220"/>
  <circle cx="116" cy="100" r="10" fill="#EF4444"/>
  <circle cx="148" cy="100" r="10" fill="#F59E0B"/>
  <circle cx="180" cy="100" r="10" fill="#10B981"/>
  <rect x="108" y="176" width="260" height="616" rx="20" fill="#0B1220"/>
  <rect x="142" y="216" width="142" height="16" rx="8" fill="#E5E7EB"/>
  <rect x="142" y="254" width="186" height="12" rx="6" fill="#334155"/>
  <rect x="142" y="292" width="172" height="12" rx="6" fill="#334155"/>
  <rect x="142" y="330" width="192" height="12" rx="6" fill="#334155"/>
  <rect x="402" y="176" width="688" height="190" rx="22" fill="#0B1220"/>
  <rect x="438" y="212" width="144" height="18" rx="9" fill="#E5E7EB"/>
  <rect x="438" y="260" width="176" height="74" rx="18" fill="#1D4ED8"/>
  <rect x="636" y="260" width="176" height="74" rx="18" fill="#172554"/>
  <rect x="834" y="260" width="220" height="74" rx="18" fill="#172554"/>
  <rect x="402" y="396" width="330" height="396" rx="22" fill="#0B1220"/>
  <rect x="438" y="432" width="120" height="18" rx="9" fill="#E5E7EB"/>
  <rect x="438" y="482" width="258" height="12" rx="6" fill="#334155"/>
  <rect x="438" y="514" width="232" height="12" rx="6" fill="#334155"/>
  <rect x="438" y="546" width="268" height="12" rx="6" fill="#334155"/>
  <rect x="438" y="606" width="224" height="136" rx="16" fill="#111827" stroke="#1E293B"/>
  <rect x="762" y="396" width="328" height="396" rx="22" fill="#0B1220"/>
  <rect x="798" y="432" width="126" height="18" rx="9" fill="#E5E7EB"/>
  <path d="M798 716L846 664L900 684L964 576L1012 622L1050 562" stroke="#60A5FA" stroke-width="10" stroke-linecap="round" stroke-linejoin="round"/>
  <circle cx="846" cy="664" r="10" fill="#93C5FD"/>
  <circle cx="900" cy="684" r="10" fill="#93C5FD"/>
  <circle cx="964" cy="576" r="10" fill="#93C5FD"/>
  <circle cx="1012" cy="622" r="10" fill="#93C5FD"/>
</svg>
