<svg width="1200" height="900" viewBox="0 0 1200 900" fill="none" xmlns="http://www.w3.org/2000/svg">
  <rect width="1200" height="900" rx="36" fill="#0B1120"/>
  <rect x="74" y="74" width="1052" height="752" rx="30" fill="#111827" stroke="#1F2937" stroke-width="2"/>
  <rect x="120" y="132" width="960" height="120" rx="24" fill="#0F172A" stroke="#1E293B"/>
  <rect x="166" y="176" width="236" height="18" rx="9" fill="#E5E7EB"/>
  <rect x="166" y="214" width="332" height="12" rx="6" fill="#334155"/>
  <rect x="120" y="292" width="454" height="488" rx="24" fill="#0F172A" stroke="#1E293B"/>
  <rect x="626" y="292" width="454" height="228" rx="24" fill="#0F172A" stroke="#1E293B"/>
  <rect x="626" y="552" width="454" height="228" rx="24" fill="#0F172A" stroke="#1E293B"/>
  <rect x="166" y="336" width="154" height="18" rx="9" fill="#E5E7EB"/>
  <rect x="166" y="380" width="360" height="12" rx="6" fill="#334155"/>
  <rect x="166" y="412" width="332" height="12" rx="6" fill="#334155"/>
  <rect x="166" y="476" width="322" height="188" rx="18" fill="#111827" stroke="#1E293B"/>
  <rect x="672" y="336" width="160" height="18" rx="9" fill="#E5E7EB"/>
  <rect x="672" y="378" width="364" height="12" rx="6" fill="#334155"/>
  <rect x="672" y="422" width="128" height="44" rx="22" fill="#1D4ED8"/>
  <rect x="672" y="596" width="176" height="18" rx="9" fill="#E5E7EB"/>
  <path d="M862 612L878 646H916L886 668L898 706L862 684L826 706L838 668L808 646H846L862 612Z" fill="#60A5FA"/>
  <rect x="672" y="730" width="244" height="12" rx="6" fill="#334155"/>
</svg>
